<?xml version="1.0"?>
<svg xmlns="http://www.w3.org/2000/svg" height="512px" version="1.1" viewBox="-36 0 512 512.00001" width="512px"><g><g id="surface1">
<path d="M 279.246094 0 C 238.21875 0 204.835938 33.382812 204.835938 74.410156 L 204.835938 76.246094 C 204.835938 84.609375 211.617188 91.390625 219.984375 91.390625 C 228.351562 91.390625 235.132812 84.609375 235.132812 76.246094 L 235.132812 74.410156 C 235.132812 50.085938 254.921875 30.296875 279.246094 30.296875 C 287.613281 30.296875 294.394531 23.511719 294.394531 15.148438 C 294.394531 6.78125 287.613281 0 279.246094 0 Z M 279.246094 0 " style=" stroke:none;fill-rule:nonzero;fill:rgb(100%,58.039216%,41.568627%);fill-opacity:1;" data-original="#FF946A"/>
<path d="M 273.335938 114.449219 C 273.335938 143.863281 249.402344 167.796875 219.984375 167.796875 C 219.761719 167.796875 219.539062 167.796875 219.316406 167.789062 C 190.203125 167.433594 166.632812 143.644531 166.632812 114.449219 C 166.632812 85.253906 190.203125 61.460938 219.316406 61.105469 C 219.539062 61.097656 219.761719 61.097656 219.984375 61.097656 C 249.402344 61.097656 273.335938 85.03125 273.335938 114.449219 Z M 273.335938 114.449219 " style=" stroke:none;fill-rule:nonzero;fill:rgb(100%,29.803922%,1.568627%);fill-opacity:1;" data-original="#FF4C04"/>
<path d="M 273.335938 114.449219 C 273.335938 122.707031 271.445312 130.523438 268.082031 137.503906 C 259.46875 155.40625 241.152344 167.796875 219.984375 167.796875 L 219.984375 61.097656 C 249.402344 61.097656 273.335938 85.03125 273.335938 114.449219 Z M 273.335938 114.449219 " style=" stroke:none;fill-rule:nonzero;fill:rgb(81.568627%,23.137255%,0%);fill-opacity:1;" data-original="#D03B00"/>
<path d="M 283.390625 137.503906 L 156.578125 137.503906 C 122.886719 137.503906 95.480469 164.914062 95.480469 198.601562 L 95.480469 243.183594 C 95.480469 251.550781 102.261719 258.332031 110.628906 258.332031 L 329.339844 258.332031 C 337.703125 258.332031 344.488281 251.550781 344.488281 243.183594 L 344.488281 198.601562 C 344.488281 164.914062 317.078125 137.503906 283.390625 137.503906 Z M 283.390625 137.503906 " style=" stroke:none;fill-rule:nonzero;fill:rgb(100%,58.039216%,41.568627%);fill-opacity:1;" data-original="#FF946A"/>
<path d="M 344.488281 198.597656 L 344.488281 243.183594 C 344.488281 251.546875 337.703125 258.332031 329.339844 258.332031 L 219.984375 258.332031 L 219.984375 137.503906 L 283.394531 137.503906 C 317.082031 137.503906 344.488281 164.910156 344.488281 198.597656 Z M 344.488281 198.597656 " style=" stroke:none;fill-rule:nonzero;fill:rgb(100%,53.333333%,34.901961%);fill-opacity:1;" data-original="#FF8859"/>
<path d="M 342.550781 213.390625 L 97.417969 213.390625 C 63.730469 213.390625 36.320312 240.796875 36.320312 274.488281 L 36.320312 362.09375 C 36.320312 370.460938 43.105469 377.242188 51.46875 377.242188 L 388.5 377.242188 C 396.863281 377.242188 403.644531 370.460938 403.644531 362.09375 L 403.644531 274.488281 C 403.644531 240.796875 376.238281 213.390625 342.550781 213.390625 Z M 342.550781 213.390625 " style=" stroke:none;fill-rule:nonzero;fill:rgb(100%,48.627451%,28.235294%);fill-opacity:1;" data-original="#FF7C48"/>
<path d="M 403.648438 274.492188 L 403.648438 362.097656 C 403.648438 370.457031 396.859375 377.242188 388.5 377.242188 L 219.984375 377.242188 L 219.984375 213.394531 L 342.550781 213.394531 C 343.195312 213.394531 343.84375 213.402344 344.488281 213.425781 C 377.289062 214.453125 403.648438 241.449219 403.648438 274.492188 Z M 403.648438 274.492188 " style=" stroke:none;fill-rule:nonzero;fill:rgb(100%,43.921569%,21.568627%);fill-opacity:1;" data-original="#FF7037"/>
<path d="M 433.433594 310.433594 C 427.652344 303.113281 418.988281 298.917969 409.660156 298.917969 L 30.308594 298.917969 C 20.980469 298.917969 12.316406 303.117188 6.535156 310.433594 C 0.753906 317.75 -1.324219 327.152344 0.832031 336.222656 L 37.101562 488.714844 C 40.359375 502.425781 52.480469 512 66.574219 512 L 373.394531 512 C 387.488281 512 399.609375 502.425781 402.867188 488.714844 L 439.136719 336.222656 C 441.292969 327.152344 439.214844 317.75 433.433594 310.433594 Z M 433.433594 310.433594 " style=" stroke:none;fill-rule:nonzero;fill:rgb(100%,92.156863%,60%);fill-opacity:1;" data-original="#FFEB99"/>
<path d="M 439.132812 336.222656 L 402.871094 488.710938 C 399.609375 502.425781 387.488281 512 373.390625 512 L 219.984375 512 L 219.984375 298.917969 L 409.65625 298.917969 C 418.988281 298.917969 427.652344 303.121094 433.429688 310.429688 C 439.214844 317.753906 441.296875 327.15625 439.132812 336.222656 Z M 439.132812 336.222656 " style=" stroke:none;fill-rule:nonzero;fill:rgb(100%,87.058824%,33.333333%);fill-opacity:1;" data-original="#FFDE55"/>
<path d="M 293.484375 389.808594 C 293.484375 400.035156 289.707031 410.449219 281.261719 418.890625 L 230.699219 469.464844 C 227.742188 472.421875 223.863281 473.898438 219.984375 473.898438 C 216.105469 473.898438 212.230469 472.421875 209.269531 469.464844 L 158.707031 418.890625 C 132.601562 392.785156 151.070312 347.695312 188.195312 347.695312 C 208.410156 347.695312 218.832031 361.398438 219.984375 362.207031 C 221.144531 361.390625 231.558594 347.695312 251.765625 347.695312 L 251.773438 347.695312 C 276.878906 347.695312 293.484375 368.347656 293.484375 389.808594 Z M 293.484375 389.808594 " style=" stroke:none;fill-rule:nonzero;fill:rgb(100%,39.215686%,14.901961%);fill-opacity:1;" data-original="#FF6426"/>
<path d="M 293.484375 389.808594 C 293.484375 400.035156 289.707031 410.449219 281.261719 418.890625 L 230.699219 469.464844 C 227.742188 472.421875 223.863281 473.898438 219.984375 473.898438 L 219.984375 362.207031 C 221.144531 361.390625 231.558594 347.695312 251.765625 347.695312 L 251.773438 347.695312 C 271.882812 347.695312 286.535156 360.945312 291.574219 377.242188 C 292.824219 381.292969 293.484375 385.535156 293.484375 389.808594 Z M 293.484375 389.808594 " style=" stroke:none;fill-rule:nonzero;fill:rgb(100%,29.803922%,1.568627%);fill-opacity:1;" data-original="#FF4C04"/>
<path d="M 293.484375 389.808594 C 293.484375 400.035156 289.707031 410.449219 281.261719 418.890625 L 230.699219 469.464844 C 227.742188 472.421875 223.863281 473.898438 219.984375 473.898438 L 219.984375 362.207031 C 221.144531 361.390625 231.558594 347.695312 251.765625 347.695312 L 251.773438 347.695312 C 276.878906 347.695312 293.484375 368.347656 293.484375 389.808594 Z M 293.484375 389.808594 " style=" stroke:none;fill-rule:nonzero;fill:rgb(81.568627%,23.137255%,0%);fill-opacity:1;" data-original="#D03B00"/>
</g></g> </svg>
