<svg id="Layer_1" data-name="Layer 1" xmlns="http://www.w3.org/2000/svg" xmlns:xlink="http://www.w3.org/1999/xlink" viewBox="0 0 136.56 21.97"><defs><style>.cls-1{fill:none;}.cls-2{clip-path:url(#clip-path);}.cls-3{fill:#0c2f4f;}</style><clipPath id="clip-path" transform="translate(-0.94 -1.04)"><rect class="cls-1" x="0.28" y="0.39" width="138" height="23.28"/></clipPath></defs><title>Blueair logo 2018small24h138w</title><g class="cls-2"><path class="cls-3" d="M43.54,3.06H30L26.13,21.13H39c5.47,0,7.24-3.06,7.75-5.47.4-1.94-.26-4-2.28-4.37v-.06a4.85,4.85,0,0,0,3.19-3.61c.71-3.35-1.5-4.56-4.13-4.56m-2,12.5A2.51,2.51,0,0,1,39,17.69H31.77l.91-4.3h6.73c1.73,0,2.46.76,2.16,2.17m.88-7.26a2.21,2.21,0,0,1-2.28,1.95H33.34l.83-3.9h6.16c2,0,2.35.81,2.12,2M52.6,3.06h4.46L53.22,21.13H48.77Zm18.34,4.5h4.45L72.51,21.13H68.2l.38-1.82h0a8.71,8.71,0,0,1-6,2.33c-2.31,0-5.65-.89-4.79-4.89l2-9.19h4.46l-1.67,7.85c-.41,1.87.4,2.79,2.45,2.79a4.4,4.4,0,0,0,4.58-3.85Zm16.32-.5c-5.37,0-9.42,2.18-10.51,7.29s2,7.29,7.42,7.29c4.08,0,7.44-1.34,9.42-4.56H88.83a4.85,4.85,0,0,1-4.08,1.77c-3,0-3.92-2-3.64-3.26v-.05H94.17l.07-.41c1.09-5.11-1.11-8.07-7-8.07m2.88,5.8,0,.05H81.66l0-.05a5,5,0,0,1,4.88-3c3.27,0,3.73,2.28,3.57,3M107,7.06c-3.65,0-7.6.48-9,4.66h4.3c1-1.88,2-2,4-2,2.58,0,3.39.53,3.14,1.62s-.74,1.32-2.1,1.42l-4.81.33c-2.76.17-5.83.88-6.51,4.17s1.54,4.41,5.09,4.41c2,0,4.91-.43,6.76-1.95a5.34,5.34,0,0,0,0,1.44h4.45a6.4,6.4,0,0,1,.08-2.73l1.42-6.73c.55-2.54-.38-4.61-6.76-4.61m1.62,8.58c-.48,2.28-3.22,3.37-5.47,3.37-1.67,0-2.66-.69-2.41-1.9s1.14-1.65,2.74-1.77l2.63-.23a8.46,8.46,0,0,0,2.73-.58ZM123.52,3.06l-.6,2.83h-4.45l.59-2.83Zm-5.41,4.5h4.46l-2.89,13.57h-4.45Zm19.39-.22-.89,4.17a8.47,8.47,0,0,0-2.38-.4c-3,0-4.81,1.54-5.36,4.18l-1.24,5.84h-4.46l2.89-13.57h4.3l-.56,2.66h0c2.05-2.07,3.52-3,6.05-3a8.43,8.43,0,0,1,1.6.13M22.91,12a11,11,0,1,1-11-11,11,11,0,0,1,11,11" transform="translate(-0.94 -1.04)"/></g></svg>